<svg xmlns="http://www.w3.org/2000/svg" width="136" height="77.367" viewBox="0 0 136 77.367"><defs><style>.a{fill:#eee;}.b{fill:#FFDD00;}</style></defs><path class="a" d="M32.874,33.613h5.511V86.47H32.874V33.613Z" transform="translate(78.86 -33.613)"/><path class="a" d="M-9.512,52.045c.637,4.681,2.9,6.649,3.206,6.912a13.526,13.526,0,0,0,9.026,3.15,18.44,18.44,0,0,0,6.147-1.047A23.75,23.75,0,0,0,14.8,57.932V63.5A25.1,25.1,0,0,1,8.712,66.6a19.447,19.447,0,0,1-6.337,1.065c-5.35,0-9.732-1.763-13.013-5.258a18.066,18.066,0,0,1-4.2-10.35c1.777,0,3.553-.022,5.33-.015Z" transform="translate(26.065 -13.42)"/><path class="a" d="M9.735,78.47H4.189V40.914H9.735Z" transform="translate(47.121 -25.613)"/><path class="a" d="M26.956,57.883v21.4h-5.57V56.617q0-5.474-1.706-8.085a6.875,6.875,0,0,0-5.547-2.626c-2.6.112-5.839,2.929-5.844,6.128,0-1.307.011-6.039.013-6.471.024-.493,2.6-5.871,8.309-5.361a9.279,9.279,0,0,1,5.645,2.206,12.17,12.17,0,0,1,3.756,6.278,43.208,43.208,0,0,1,.945,9.2Z" transform="translate(51.659 -26.43)"/><path class="b" d="M-9.546,39.517A30.363,30.363,0,0,0-20.17,61.524c0,23.214,22.733,42.761,72,42.986,28.113,0,52.226-10.421,64-24.208C103.2,92.315,80.809,99.483,54.949,99.483c-57.094-1.727-71.9-20.322-72.337-37.746-.648-4.732,2.556-16.371,7.841-22.221Z" transform="translate(20.17 -27.144)"/><path class="a" d="M37.446,57.9V79.3h-5.57V56.635q0-5.474-1.706-8.085a6.875,6.875,0,0,0-5.547-2.626c-2.6.112-5.839,2.929-5.844,6.128,0-1.307.011-6.039.013-6.471.024-.493,2.6-5.871,8.309-5.361a9.279,9.279,0,0,1,5.645,2.206A12.17,12.17,0,0,1,36.5,48.7a43.207,43.207,0,0,1,.945,9.2Z" transform="translate(63.265 -26.411)"/><path class="a" d="M1.3,40.333a15.108,15.108,0,0,0-3.215.283,13.836,13.836,0,0,0-6.444,3.028A17.268,17.268,0,0,0-13.6,51.922a31.768,31.768,0,0,0-1.258,8.761c.057.284.416.136.62.173l30.028.034c.278-.064.131-.415.167-.617a42.443,42.443,0,0,0-.334-7.125,16.58,16.58,0,0,0-4.013-8.712,12.5,12.5,0,0,0-6.3-3.683,13.8,13.8,0,0,0-3.438-.419c-.19,0-.379,0-.569,0Zm.144,5.255a9.49,9.49,0,0,1,4.335.923,8.412,8.412,0,0,1,3.835,3.871,12.6,12.6,0,0,1,1.155,5.156c-6.826.1-14.2.086-20.011.109A11.766,11.766,0,0,1-6.933,49.2,8.947,8.947,0,0,1-3.9,46.75,11.835,11.835,0,0,1,1.444,45.588Z" transform="translate(26.044 -26.251)"/></svg>